<svg viewBox="0 0 212 212" fill="none" xmlns="http://www.w3.org/2000/svg">
<path d="M105.956 188.982C151.781 188.982 188.931 151.833 188.931 106.007C188.931 60.1815 151.781 23.0322 105.956 23.0322C60.1297 23.0322 22.9805 60.1815 22.9805 106.007C22.9805 151.833 60.1297 188.982 105.956 188.982Z" fill="black"/>
<path d="M105.746 180.075C146.653 180.075 179.816 146.912 179.816 106.005C179.816 65.0968 146.653 31.9346 105.746 31.9346C64.838 31.9346 31.6758 65.0968 31.6758 106.005C31.6758 146.912 64.838 180.075 105.746 180.075Z" fill="#FEF102"/>
<path d="M140.954 78.1891C139.187 74.2219 137.541 66.384 133.009 64.6411C127.174 62.3977 123.568 77.0848 122.708 80.7956H121.84C120.369 74.4374 118.395 65.4256 111.413 63.4186C108.181 76.9935 114.79 91.6381 120.971 103.386C127.571 100.232 130.786 90.3548 131.397 83.4022H132.266L139.217 104.255C144.809 102.647 146.754 97.1136 148.773 92.0907C153.108 81.31 156.745 68.0513 153.987 56.4678C145.642 58.8311 143.103 70.7647 140.954 78.1891ZM57.5445 105.992C65.0123 102.427 68.5659 91.1402 69.7084 83.4022H70.5773C71.4609 87.1322 73.8233 96.7547 78.4838 97.3725C84.4216 98.1579 87.5347 84.9826 87.9543 80.7956H88.8232C90.7164 87.3372 92.7113 95.8442 99.2494 99.0415C101.661 88.9107 98.7733 78.1065 95.0685 68.6317C94.1162 66.1954 92.1604 59.6269 88.8015 59.6269C83.2981 59.6269 80.2042 74.1333 79.2658 78.1891H78.397L71.4461 57.3366C59.2197 63.1753 52.5781 94.222 57.5445 105.992ZM44.5117 116.419C53.5851 155.996 95.4369 178.432 133.135 161.719C146.855 155.636 157.738 144.798 164.013 131.189C165.634 127.673 168.818 121.308 166.962 116.695C165.113 112.1 147.181 119.608 142.7 121.569C142.071 121.849 141.627 122.429 141.523 123.11C141.377 124.074 141.637 125.056 142.245 125.82C142.851 126.583 143.749 127.059 144.721 127.134C148.006 127.387 152.249 127.714 152.249 127.714C138.62 154.096 101.768 165.762 75.7904 144.684C69.976 139.967 64.789 134.362 61.2979 127.714C59.6098 124.499 58.0441 120.388 55.1743 118.181C52.4174 116.062 48.2348 115.335 44.5117 116.419Z" fill="black"/>
</svg>
